<svg width="42" height="42" viewBox="0 0 42 42" fill="none" xmlns="http://www.w3.org/2000/svg">
<path d="M21 0.166626C9.50002 0.166626 0.166687 9.49996 0.166687 21C0.166687 32.5 9.50002 41.8333 21 41.8333C32.5 41.8333 41.8334 32.5 41.8334 21C41.8334 9.49996 32.5 0.166626 21 0.166626ZM21 8.49996C25.0209 8.49996 28.2917 11.7708 28.2917 15.7916C28.2917 19.8125 25.0209 23.0833 21 23.0833C16.9792 23.0833 13.7084 19.8125 13.7084 15.7916C13.7084 11.7708 16.9792 8.49996 21 8.49996ZM21 37.6666C16.7709 37.6666 11.7709 35.9583 8.20835 31.6666C11.8575 28.8035 16.3617 27.2475 21 27.2475C25.6383 27.2475 30.1425 28.8035 33.7917 31.6666C30.2292 35.9583 25.2292 37.6666 21 37.6666Z" fill="#5D8D73"/>
</svg>
