<svg width="41" height="41" viewBox="0 0 41 41" fill="none" xmlns="http://www.w3.org/2000/svg">
<g clip-path="url(#clip0_91_41)">
<path d="M30.0666 30.0667H27.3333V27.3334H30.0666V30.0667ZM21.8666 30.0667H24.6V27.3334H21.8666V30.0667ZM35.5333 30.0667H32.8V27.3334H35.5333V30.0667Z" fill="#5D8D73"/>
<path fill-rule="evenodd" clip-rule="evenodd" d="M8.2 16.4V9.56667C8.2 8.31035 8.44745 7.06634 8.92822 5.90566C9.40899 4.74498 10.1137 3.69036 11.002 2.80201C11.8904 1.91366 12.945 1.20899 14.1057 0.728219C15.2663 0.247449 16.5104 0 17.7667 0C19.023 0 20.267 0.247449 21.4277 0.728219C22.5884 1.20899 23.643 1.91366 24.5313 2.80201C25.4197 3.69036 26.1243 4.74498 26.6051 5.90566C27.0859 7.06634 27.3333 8.31035 27.3333 9.56667V16.4H31.4333C32.5207 16.4 33.5636 16.832 34.3325 17.6009C35.1014 18.3698 35.5333 19.4126 35.5333 20.5V22.0033C37.0781 22.317 38.4668 23.1551 39.4644 24.3755C40.4619 25.596 41.0069 27.1237 41.0069 28.7C41.0069 30.2763 40.4619 31.804 39.4644 33.0245C38.4668 34.2449 37.0781 35.083 35.5333 35.3967V36.9C35.5333 37.9874 35.1014 39.0302 34.3325 39.7991C33.5636 40.568 32.5207 41 31.4333 41H4.1C3.01261 41 1.96976 40.568 1.20086 39.7991C0.431963 39.0302 0 37.9874 0 36.9L0 20.5C0 19.4126 0.431963 18.3698 1.20086 17.6009C1.96976 16.832 3.01261 16.4 4.1 16.4H8.2ZM10.9333 9.56667C10.9333 7.75435 11.6533 6.01627 12.9348 4.73477C14.2163 3.45327 15.9544 2.73333 17.7667 2.73333C19.579 2.73333 21.3171 3.45327 22.5986 4.73477C23.8801 6.01627 24.6 7.75435 24.6 9.56667V16.4H10.9333V9.56667ZM23.2333 24.6C22.1459 24.6 21.1031 25.032 20.3342 25.8009C19.5653 26.5698 19.1333 27.6126 19.1333 28.7C19.1333 29.7874 19.5653 30.8302 20.3342 31.5991C21.1031 32.368 22.1459 32.8 23.2333 32.8H34.1667C35.2541 32.8 36.2969 32.368 37.0658 31.5991C37.8347 30.8302 38.2667 29.7874 38.2667 28.7C38.2667 27.6126 37.8347 26.5698 37.0658 25.8009C36.2969 25.032 35.2541 24.6 34.1667 24.6H23.2333Z" fill="#5D8D73"/>
</g>
<defs>
<clipPath id="clip0_91_41">
<rect width="41" height="41" fill="white"/>
</clipPath>
</defs>
</svg>
